<?xml version="1.0" encoding="UTF-8" standalone="no"?>
<!-- Created with Inkscape (http://www.inkscape.org/) -->

<svg
   version="1.1"
   id="svg1"
   width="1024"
   height="1024"
   viewBox="0 0 1024 1024"
   sodipodi:docname="lokus.svg"
   inkscape:version="1.4.1-rc (d9e8dc1fe0, 2025-03-10)"
   xmlns:inkscape="http://www.inkscape.org/namespaces/inkscape"
   xmlns:sodipodi="http://sodipodi.sourceforge.net/DTD/sodipodi-0.dtd"
   xmlns="http://www.w3.org/2000/svg"
   xmlns:svg="http://www.w3.org/2000/svg">
  <defs
     id="defs1" />
  <sodipodi:namedview
     id="namedview1"
     pagecolor="#ffffff"
     bordercolor="#000000"
     borderopacity="0.25"
     inkscape:showpageshadow="2"
     inkscape:pageopacity="0.0"
     inkscape:pagecheckerboard="0"
     inkscape:deskcolor="#d1d1d1"
     inkscape:zoom="0.85449219"
     inkscape:cx="511.41486"
     inkscape:cy="512"
     inkscape:window-width="2560"
     inkscape:window-height="1080"
     inkscape:window-x="0"
     inkscape:window-y="0"
     inkscape:window-maximized="1"
     inkscape:current-layer="g1" />
  <g
     inkscape:groupmode="layer"
     inkscape:label="Image"
     id="g1">
    <path
       style="fill:#0f9ba5;stroke:none"
       d="M 0,0 V 1024 H 1024 V 0 H 0 m 512,170 c 114.08887,88.01184 145.01874,252.07806 96.05017,383 -14.01782,37.47803 -36.19989,74.03802 -65.05402,101.96063 C 536.10944,661.625 528.66632,667.87921 521,673.625 c -2.72742,2.04419 -6.28918,5.59534 -10,5.11267 -9.3598,-1.21753 -20.22467,-14.43616 -27,-20.31329 C 455.50085,633.70349 434.2482,598.37903 419.5787,564 375.85303,461.52582 385.66345,333.96899 447.66666,241 464.69348,215.4696 485.61206,186.43304 512,170 M 401,568 h -1 c -27.02985,-35.86548 -61.32959,-69.16943 -96,-97.57562 -10.40543,-8.52539 -21.63998,-16.17627 -33,-23.37116 -5.28134,-3.34497 -13.35794,-6.22485 -17.1821,-11.26617 C 246.05795,425.55719 243.2345,406.39307 240.80402,394 232.67159,352.53253 232.5675,302.37567 250,263 c 39.38922,8.13019 78.62347,28.60693 108,55.97528 7.49045,6.97839 22.02295,16.82666 25.16742,27.02472 2.17926,7.06775 -3.65311,19.72308 -4.91742,27 -3.32639,19.14551 -5.25,38.5816 -5.25,58 0,48.37915 14.92606,91.26624 28,137 M 774,263 c 13.71899,42.17584 17.32697,87.36304 8.60034,131 -2.49304,12.46625 -5.33276,32.57806 -13.56946,42.60956 -7.01007,8.53766 -22.74926,14.80316 -32.03088,21.06018 -17.83246,12.02136 -34.4776,26.52692 -50,41.36963 -15.31073,14.64032 -29.85657,30.06976 -43.84491,45.96063 -6.62396,7.5249 -13.44171,18.99341 -22.15509,24 20.25647,-49.38782 30.63025,-102.67596 29.99615,-156 -0.17279,-14.53265 -2.28948,-29.80341 -5.42053,-44 -1.33093,-6.03448 -6.34997,-15.95294 -4.79937,-22 C 643.26855,337.28046 658.05829,326.78632 665,320.01465 692.81879,292.87732 735.06702,268.72839 774,263 M 468,346 V 535 H 573 V 498 H 507 V 346 h -39 m 8,332 C 381.78381,678 285.23459,671.03583 209,608.57562 192.07379,594.7077 176.8835,579.26746 163.42438,562 148.65067,543.04602 136.85168,522.12262 127.57561,500 117.21132,475.28204 108.22358,445.00543 108,418 c 33.09317,0 65.22832,0.76459 97,11.35498 80.82779,26.9422 135.27496,97.86884 190.16977,158.64502 17.53769,19.41663 35.20431,38.74036 52.91589,58 8.81382,9.58417 22.4119,20.20056 27.91434,32 M 916,418 c -2.06274,26.13464 -9.19189,52.52905 -18.31946,77 -7.81323,20.94714 -19.02826,40.63873 -31.70605,59 -9.88385,14.31482 -21.70368,26.7489 -33.97449,39 -76.02216,75.90015 -183.78278,85 -285,85 7.89117,-11.20422 18.64459,-20.8302 27.83026,-31 l 58,-64 C 686.3175,523.77783 738.30487,456.5863 817,430.35498 849.5705,419.49829 882.03119,418 916,418 M 885,742 C 827.59546,781.04919 753.57349,799.85468 686,776.30481 655.17249,765.56116 629.31476,748.05261 604,727.80017 592.07611,718.26074 575.68085,709.72101 566,698 c 43.47412,0 88.57495,-3.82898 131,-13.88428 15.29053,-3.62402 30.11615,-8.14489 45,-13.11572 6.77032,-2.26111 14.82257,-7.10162 22,-7.23224 34.7218,-0.63177 70.70813,27.55866 95,48.94672 8.90265,7.8385 20.94824,18.43762 26,29.28552 M 457,698 v 1 c -28.87354,19.64099 -54.40598,44.07056 -85,61.13812 -50.87823,28.38361 -110.71024,32.89093 -166,15.88654 -17.48558,-5.37769 -34.30582,-13.00708 -50,-22.42432 -5.90884,-3.54565 -13.78374,-7.30481 -17,-13.60034 10.7785,-9.32343 19.37027,-21.21619 30,-30.8302 23.28186,-21.05731 54.27596,-40.49133 86,-44.8689 8.31631,-1.14752 16.32968,3.79969 24,6.36573 15.53189,5.19629 31.06732,9.67395 47,13.44909 C 368.44409,694.17273 413.51804,698 457,698 m 53,-4.56641 c 11.63196,-0.90124 28.31299,12.43409 38,17.98767 17.16425,9.84034 44.41779,21.70484 50.07251,42.57874 2.87512,10.61316 -1.06122,21.604 -5.82867,31 -11.47583,22.61731 -32.53717,39.75812 -52.24384,54.9892 -6.59558,5.09765 -19.54547,18.41424 -28,19.02856 -4.49173,0.32636 -9.66397,-4.90094 -13,-7.39203 -10.13492,-7.56793 -20.33066,-15.05377 -30,-23.216 C 449.50684,811.95483 412.99182,776.96106 428.32715,748 437.28714,731.07892 459.04297,721.01086 475,711.85034 c 9.89719,-5.68176 23.34824,-17.51391 35,-18.41675 z"
       id="path9" />
  </g>
</svg>
